<?xml version="1.0" standalone="no"?>
<!DOCTYPE svg PUBLIC "-//W3C//DTD SVG 20010904//EN"
 "http://www.w3.org/TR/2001/REC-SVG-20010904/DTD/svg10.dtd">
<svg version="1.0" xmlns="http://www.w3.org/2000/svg"
 width="2250.000000pt" height="2250.000000pt" viewBox="0 0 2250.000000 2250.000000"
 preserveAspectRatio="xMidYMid meet">
<metadata>
Created by potrace 1.14, written by Peter Selinger 2001-2017
</metadata>
<g transform="translate(0.000000,2250.000000) scale(0.100000,-0.100000)"
fill="#000000" stroke="none">
<path d="M14845 16322 c-23 -12 -58 -15 -157 -14 -72 1 -139 -3 -155 -9 -15
-6 -73 -15 -128 -19 -100 -9 -198 -22 -310 -42 -33 -5 -87 -14 -120 -19 -33
-4 -94 -15 -135 -23 -70 -14 -101 -21 -277 -62 -38 -9 -87 -20 -111 -25 -23
-4 -51 -13 -61 -19 -11 -5 -30 -10 -42 -10 -11 0 -42 -7 -68 -15 -25 -8 -73
-22 -106 -30 -33 -9 -71 -20 -85 -25 -14 -4 -72 -23 -130 -40 -58 -18 -121
-38 -140 -45 -19 -7 -73 -25 -120 -40 -76 -25 -150 -53 -380 -142 -72 -28
-248 -104 -353 -152 -37 -17 -70 -31 -72 -31 -15 0 -417 -207 -575 -296 -415
-235 -716 -439 -1076 -734 -316 -258 -689 -645 -924 -960 -110 -147 -130 -169
-148 -163 -9 3 -46 31 -81 62 -76 67 -171 142 -226 178 -22 15 -44 32 -50 37
-9 10 -77 55 -165 111 -107 68 -381 211 -485 253 -128 53 -285 112 -295 112
-6 0 -18 4 -28 9 -22 12 -107 38 -155 46 -20 4 -40 11 -43 16 -3 5 -22 9 -42
9 -21 0 -46 6 -57 14 -11 7 -40 16 -65 19 -25 3 -79 13 -120 22 -495 104
-1078 103 -1585 -1 -38 -8 -91 -19 -117 -24 -26 -5 -56 -13 -67 -19 -11 -6
-30 -11 -43 -11 -13 0 -43 -6 -68 -14 -25 -8 -74 -22 -110 -32 -103 -26 -417
-142 -549 -202 -288 -130 -632 -321 -846 -471 -306 -215 -511 -382 -775 -632
-172 -163 -425 -424 -511 -526 -154 -182 -347 -419 -401 -492 -118 -156 -116
-154 -249 -346 -77 -111 -188 -279 -253 -382 -26 -43 -68 -109 -92 -148 -24
-38 -44 -75 -44 -82 0 -7 -4 -13 -9 -13 -5 0 -13 -10 -17 -22 -3 -12 -13 -28
-20 -36 -8 -7 -14 -20 -14 -28 0 -8 -4 -14 -10 -14 -5 0 -10 -6 -10 -14 0 -7
-7 -19 -15 -26 -17 -14 -20 -50 -5 -50 6 0 10 7 10 15 0 8 20 44 45 81 25 36
45 68 45 71 0 3 10 20 23 37 13 17 27 38 30 46 18 38 242 375 330 495 12 17
38 53 57 80 36 49 133 180 197 263 62 82 138 175 183 226 25 28 63 74 85 101
41 52 240 266 380 409 153 155 410 388 558 504 23 18 67 53 97 77 151 123 192
155 199 155 3 0 20 12 37 28 17 15 51 41 75 58 68 47 262 178 284 191 210 129
326 197 380 221 11 6 76 38 145 72 171 84 321 147 540 225 94 33 108 37 245
75 32 9 159 42 258 66 32 8 73 14 90 14 18 0 57 7 87 15 30 8 78 15 105 15 28
1 82 7 120 15 96 18 704 18 825 -1 47 -7 105 -13 130 -14 25 0 70 -7 100 -15
30 -8 74 -15 98 -15 24 0 53 -5 64 -11 11 -6 44 -15 72 -19 51 -9 140 -30 206
-49 19 -6 58 -17 85 -24 63 -18 144 -45 170 -56 11 -5 70 -28 130 -51 125 -48
391 -175 448 -214 21 -14 56 -35 78 -46 72 -37 369 -246 384 -270 4 -6 30 -29
58 -51 29 -23 72 -60 97 -82 25 -23 58 -53 73 -67 l28 -25 20 25 c11 14 44 62
74 106 30 45 61 88 69 97 8 8 27 32 41 53 15 22 39 53 54 69 15 17 41 50 58
75 17 25 45 59 63 75 18 17 61 66 95 110 73 92 337 355 440 437 39 30 84 70
100 88 17 18 65 60 108 94 44 33 109 85 145 114 37 29 83 64 102 77 19 14 60
43 90 65 60 45 241 169 270 185 10 6 35 22 56 36 83 55 265 169 270 169 4 0
123 66 214 120 49 29 544 272 589 290 30 12 78 32 105 44 80 36 191 82 311
126 61 23 119 46 130 51 28 12 104 39 140 49 29 8 80 25 120 41 44 16 92 32
125 39 19 4 49 13 65 18 17 6 57 18 90 28 33 9 67 19 75 22 8 3 17 6 20 7 3 1
23 5 45 10 22 4 45 11 50 15 6 5 33 13 60 19 28 5 79 17 115 26 36 8 81 18
100 21 19 3 52 12 73 20 20 8 53 14 73 14 19 0 45 5 57 12 12 6 48 15 82 19
33 5 98 15 145 23 47 7 123 19 170 25 47 6 104 16 128 21 23 6 70 10 105 11
34 0 85 5 112 11 175 36 1280 39 1335 3 8 -5 60 -13 115 -16 106 -7 250 -27
405 -54 52 -10 120 -20 150 -24 30 -4 65 -12 77 -19 12 -7 36 -12 54 -12 17 0
52 -6 78 -14 25 -8 80 -22 121 -31 41 -10 89 -21 105 -26 17 -4 57 -16 90 -25
106 -29 318 -97 445 -144 47 -17 116 -42 153 -56 37 -13 76 -29 85 -33 9 -5
69 -31 132 -57 109 -46 424 -200 575 -282 102 -55 318 -187 410 -251 180 -123
282 -195 306 -215 8 -7 42 -32 75 -56 32 -24 70 -54 84 -66 14 -13 44 -38 67
-56 176 -139 559 -506 681 -653 37 -44 86 -100 109 -125 23 -25 64 -74 92
-110 28 -36 76 -96 106 -135 31 -38 63 -81 72 -95 10 -14 34 -46 55 -71 21
-26 38 -49 38 -53 0 -3 26 -40 58 -83 64 -85 168 -245 256 -393 31 -52 61
-102 66 -110 5 -8 26 -46 46 -85 20 -38 40 -74 44 -80 11 -14 112 -216 150
-300 17 -38 44 -97 59 -130 16 -33 36 -80 46 -105 10 -25 23 -58 31 -75 25
-59 42 -101 59 -150 10 -27 22 -54 27 -60 4 -5 8 -16 8 -25 0 -8 7 -28 15 -44
8 -15 15 -38 15 -50 0 -12 7 -31 15 -42 8 -10 15 -29 15 -40 0 -12 7 -35 15
-50 8 -16 15 -39 15 -51 0 -12 4 -24 9 -27 5 -4 12 -24 16 -46 4 -22 11 -42
16 -46 5 -3 9 -15 9 -27 0 -12 6 -42 14 -67 8 -25 21 -68 30 -96 9 -29 16 -63
16 -77 0 -14 4 -28 9 -32 5 -3 13 -30 16 -60 4 -31 11 -58 16 -61 5 -3 9 -22
9 -42 1 -20 7 -55 15 -77 8 -22 15 -58 15 -80 0 -22 7 -53 15 -69 8 -15 15
-54 15 -86 0 -39 5 -62 15 -70 11 -9 15 -33 15 -86 0 -43 4 -74 10 -74 19 0
15 125 -5 173 -7 18 -13 57 -13 89 0 31 -5 65 -11 76 -6 12 -11 38 -11 59 -1
21 -7 56 -15 78 -8 22 -15 53 -15 70 0 16 -6 47 -14 70 -14 41 -31 115 -45
195 -4 25 -13 55 -19 67 -7 12 -12 32 -12 45 0 12 -6 40 -14 63 -8 22 -19 60
-26 85 -25 90 -52 175 -61 192 -5 10 -9 25 -9 34 0 9 -6 30 -13 47 -21 49 -38
100 -44 127 -3 14 -9 30 -13 35 -4 6 -15 35 -24 65 -10 30 -24 69 -31 85 -7
17 -35 82 -60 145 -122 298 -326 699 -478 940 -85 136 -187 289 -217 330 -15
19 -60 79 -101 134 -41 54 -81 109 -90 122 -8 13 -29 39 -46 58 -17 18 -48 56
-68 82 -21 27 -72 87 -115 134 -42 47 -94 105 -115 130 -67 78 -217 230 -290
292 -38 34 -108 96 -155 138 -47 43 -112 99 -145 126 -33 26 -66 54 -74 62 -8
7 -39 32 -70 55 -31 22 -62 47 -70 55 -8 8 -30 25 -50 38 -20 13 -63 44 -96
69 -59 43 -154 109 -187 130 -9 5 -55 35 -103 65 -231 148 -601 349 -790 430
-77 33 -86 36 -155 68 -36 16 -87 37 -115 47 -27 10 -54 22 -59 27 -6 4 -16 8
-24 8 -8 0 -28 6 -45 14 -18 8 -57 22 -87 32 -30 10 -59 21 -65 25 -5 3 -64
23 -130 43 -66 21 -130 42 -143 47 -13 5 -31 9 -40 9 -9 0 -30 7 -46 15 -15 8
-37 15 -48 15 -11 0 -41 7 -67 14 -76 24 -152 44 -236 62 -44 9 -89 20 -101
24 -12 5 -48 11 -80 15 -32 4 -64 11 -69 16 -6 4 -33 9 -60 10 -28 1 -67 8
-89 16 -21 7 -64 13 -96 13 -31 0 -79 7 -106 15 -27 8 -84 15 -126 15 -42 0
-89 5 -105 12 -15 6 -101 14 -190 18 -106 4 -167 10 -175 18 -9 9 -103 12
-367 11 -302 -1 -361 -3 -386 -17z"/>
<path d="M14895 16154 c-121 -8 -263 -19 -315 -25 -52 -6 -138 -14 -190 -17
-52 -4 -102 -12 -110 -17 -8 -5 -48 -12 -90 -16 -79 -7 -185 -23 -260 -38
-173 -36 -209 -44 -245 -53 -22 -5 -60 -13 -85 -17 -25 -4 -55 -13 -67 -19
-12 -7 -37 -12 -55 -12 -19 0 -39 -5 -44 -10 -6 -6 -33 -15 -60 -19 -46 -8
-95 -21 -219 -57 -27 -8 -63 -19 -80 -24 -28 -8 -48 -14 -135 -45 -19 -7 -69
-23 -110 -36 -93 -28 -279 -95 -302 -109 -10 -5 -23 -10 -29 -10 -6 0 -25 -6
-42 -14 -18 -7 -50 -20 -72 -29 -456 -181 -903 -408 -1325 -672 -87 -55 -283
-188 -386 -263 -33 -23 -83 -60 -112 -81 -29 -21 -65 -49 -80 -63 -15 -13 -45
-37 -67 -53 -44 -32 -104 -83 -259 -220 -128 -113 -482 -471 -544 -549 -26
-33 -66 -80 -88 -105 -23 -25 -50 -60 -60 -77 -11 -17 -32 -46 -47 -65 -51
-62 -152 -203 -180 -251 -20 -34 -34 -48 -49 -48 -13 0 -55 32 -108 83 -153
146 -378 314 -595 444 -105 63 -325 173 -435 217 -36 15 -74 31 -85 35 -69 29
-177 65 -290 98 -27 8 -75 21 -105 30 -54 15 -83 22 -190 43 -30 6 -75 16
-100 22 -25 6 -79 14 -120 17 -41 3 -82 10 -90 16 -21 13 -279 27 -520 28
-218 1 -472 -15 -530 -32 -19 -6 -54 -11 -77 -11 -23 0 -54 -5 -69 -11 -16 -5
-58 -14 -94 -19 -63 -9 -96 -16 -210 -46 -306 -80 -559 -175 -869 -326 -308
-150 -618 -342 -901 -559 -192 -147 -293 -232 -516 -436 -203 -185 -255 -236
-354 -353 -36 -41 -97 -109 -137 -150 -40 -42 -90 -100 -113 -129 -22 -30 -59
-75 -82 -100 -41 -44 -116 -138 -148 -186 -8 -12 -30 -39 -47 -61 -79 -95
-181 -235 -209 -285 -6 -11 -20 -30 -31 -42 -40 -45 -380 -572 -434 -672 -36
-68 -100 -179 -108 -189 -5 -6 -31 -54 -59 -106 -28 -52 -73 -138 -101 -190
-53 -99 -175 -345 -243 -490 -22 -47 -57 -121 -78 -165 -21 -44 -61 -136 -90
-205 -29 -69 -60 -143 -70 -165 -10 -22 -41 -101 -70 -175 -29 -74 -58 -148
-65 -165 -7 -16 -16 -45 -20 -62 -3 -18 -11 -35 -16 -38 -5 -4 -9 -19 -9 -34
0 -16 -7 -46 -16 -66 -20 -49 -7 -80 41 -101 49 -20 836 -21 857 -1 10 10 12
51 10 175 l-3 162 -299 0 c-168 0 -301 4 -304 9 -3 5 13 39 36 75 24 37 63 99
88 138 53 84 147 226 238 358 36 52 86 124 110 160 25 36 68 97 96 135 28 39
59 81 69 95 50 72 227 305 297 391 25 31 74 94 110 139 36 45 83 103 106 129
22 25 62 73 89 106 26 33 68 83 94 110 25 28 70 78 98 113 192 233 871 908
1037 1031 28 21 62 51 76 66 14 15 57 52 95 81 39 30 104 82 145 115 41 33 87
67 101 77 14 9 41 29 60 44 29 23 85 64 204 148 17 12 45 31 64 43 19 12 51
33 72 47 261 171 621 365 834 450 44 17 88 36 98 41 9 5 65 25 125 45 59 19
116 39 127 44 23 9 94 30 180 53 147 38 165 41 350 67 44 6 99 15 123 21 56
12 550 12 621 -1 31 -5 88 -15 126 -21 333 -53 595 -148 915 -332 98 -57 219
-134 230 -147 3 -4 25 -21 50 -38 121 -86 370 -307 454 -401 17 -19 68 -73
112 -120 110 -116 236 -269 329 -401 14 -19 50 -69 80 -110 30 -41 58 -82 62
-90 4 -8 16 -28 27 -45 12 -16 26 -39 32 -50 14 -25 44 -32 44 -10 0 9 8 37
19 63 10 26 31 79 46 117 69 175 231 514 285 595 9 14 22 36 28 50 20 39 37
67 149 235 183 275 358 488 599 727 222 219 486 435 720 588 31 21 163 109
196 131 15 11 31 19 36 19 5 0 20 8 33 18 13 11 49 32 79 49 30 17 78 43 105
60 154 90 618 303 850 390 22 8 54 20 70 27 17 7 111 39 210 71 99 32 188 62
198 67 10 5 37 13 60 18 23 5 65 16 92 24 130 38 270 74 390 100 44 10 105 24
136 32 30 8 70 14 88 14 18 0 40 4 50 10 10 5 49 14 87 19 38 5 116 17 174 26
101 16 144 21 370 44 193 19 682 40 755 31 39 -4 151 -11 250 -15 99 -4 209
-11 245 -16 36 -6 108 -14 160 -19 52 -5 138 -17 190 -26 52 -9 118 -19 145
-23 28 -5 70 -13 95 -19 25 -6 68 -16 95 -23 28 -6 70 -15 95 -19 25 -4 65
-12 90 -19 25 -7 61 -17 80 -21 57 -14 235 -68 370 -112 377 -121 834 -332
1200 -553 105 -64 343 -219 390 -255 19 -15 71 -53 115 -86 44 -32 85 -64 90
-70 6 -7 28 -24 50 -39 22 -14 69 -52 104 -83 35 -31 77 -67 93 -79 16 -12 69
-59 116 -105 48 -46 120 -112 161 -148 70 -62 323 -329 424 -448 27 -31 69
-81 95 -111 26 -30 58 -70 71 -90 14 -20 31 -42 38 -49 20 -20 206 -271 262
-354 28 -40 59 -84 70 -98 12 -14 21 -30 21 -37 0 -6 3 -13 8 -15 8 -4 82
-115 82 -124 0 -3 10 -20 22 -37 28 -38 118 -186 118 -193 0 -2 18 -34 40 -70
22 -36 40 -70 40 -74 0 -5 4 -10 8 -12 11 -4 162 -301 307 -603 13 -27 31 -68
40 -90 8 -22 22 -53 30 -68 8 -16 15 -32 15 -37 0 -5 13 -37 29 -72 16 -35 48
-112 71 -173 69 -181 72 -189 81 -210 5 -11 20 -54 33 -95 14 -41 41 -120 60
-175 20 -55 36 -109 36 -120 0 -12 4 -25 9 -30 6 -6 14 -28 20 -50 6 -22 17
-64 26 -92 41 -136 75 -260 86 -311 4 -23 13 -51 19 -61 5 -11 10 -32 10 -46
0 -14 5 -36 12 -48 7 -12 15 -44 19 -72 5 -27 15 -79 25 -115 9 -36 19 -91 21
-122 l5 -58 -326 0 -326 0 0 -152 c0 -84 3 -163 6 -175 l6 -23 397 0 c357 0
399 2 431 18 l35 17 8 285 c12 454 12 461 3 760 -4 157 -13 301 -19 320 -5 19
-14 89 -18 155 -7 116 -17 203 -41 350 -6 39 -15 99 -19 135 -4 36 -13 90 -19
120 -6 30 -15 75 -20 100 -21 108 -44 213 -71 325 -16 66 -29 129 -29 141 0
11 -4 24 -10 30 -5 5 -14 30 -19 54 -5 25 -14 59 -19 75 -6 17 -18 57 -28 90
-24 86 -65 217 -75 240 -12 28 -39 106 -46 130 -3 11 -11 34 -19 52 -8 17 -14
37 -14 45 0 8 -4 18 -8 24 -5 5 -17 32 -27 59 -19 53 -37 98 -89 218 -91 209
-247 517 -342 674 -24 40 -44 75 -44 78 0 4 -11 21 -25 39 -14 18 -25 36 -25
39 0 4 -20 36 -45 73 -25 36 -45 68 -45 70 0 3 -18 31 -40 62 -22 31 -46 65
-53 76 -80 122 -294 395 -444 569 -267 306 -673 678 -973 890 -14 10 -52 38
-85 62 -111 82 -311 214 -385 253 -25 14 -56 33 -70 42 -81 56 -479 262 -640
332 -14 6 -33 14 -42 19 -27 14 -210 90 -238 99 -14 5 -50 18 -80 30 -30 11
-102 37 -160 56 -58 19 -114 39 -125 44 -11 5 -47 16 -80 25 -33 10 -80 23
-105 30 -25 7 -70 20 -100 28 -30 8 -80 22 -110 30 -30 9 -66 18 -80 21 -14 3
-54 13 -90 22 -36 9 -99 22 -140 30 -41 7 -115 20 -165 29 -49 9 -122 20 -161
24 -38 4 -77 12 -85 17 -8 5 -59 12 -114 16 -55 4 -145 12 -200 17 -335 34
-677 42 -960 25z m996 -82 c654 -72 1200 -204 1762 -428 1626 -646 2877 -1900
3522 -3529 256 -645 409 -1293 475 -2010 20 -224 3 -165 -29 95 -24 198 -83
535 -131 745 -308 1373 -1009 2578 -2010 3454 -748 655 -1628 1118 -2595 1366
-485 124 -877 181 -1428 206 -371 17 -753 -2 -1202 -62 -676 -89 -1474 -319
-2160 -624 -139 -62 -518 -248 -610 -300 -287 -161 -378 -217 -605 -368 -555
-371 -1057 -833 -1417 -1304 -87 -114 -242 -336 -262 -375 -8 -16 -21 -28 -29
-28 -9 0 -65 49 -126 108 -863 842 -2216 1174 -3491 856 -800 -200 -1640 -694
-2345 -1380 -742 -721 -1317 -1528 -1875 -2632 -68 -135 -97 -174 -49 -67 35
81 194 403 247 500 94 174 275 492 325 572 15 23 40 63 56 90 124 205 384 576
598 854 295 383 787 885 1153 1178 370 297 645 476 1020 666 474 241 962 391
1431 440 390 41 835 24 1189 -46 702 -139 1304 -449 1788 -919 48 -47 94 -86
101 -88 8 -2 51 53 101 130 279 423 708 884 1155 1239 1107 880 2585 1488
4012 1649 298 34 408 38 838 35 323 -2 443 -7 591 -23z"/>
<path d="M14933 14541 c-120 -12 -74 -21 103 -21 187 0 257 12 137 23 -76 8
-148 7 -240 -2z"/>
<path d="M14500 14514 c-25 -8 -88 -15 -141 -17 -53 -1 -102 -7 -110 -13 -8
-7 -51 -14 -96 -16 -45 -3 -88 -9 -95 -15 -7 -6 -41 -13 -76 -15 -34 -2 -68
-10 -75 -17 -14 -16 34 -12 178 14 162 29 487 66 670 76 41 3 -87 17 -155 17
-30 0 -75 -6 -100 -14z"/>
<path d="M15400 14521 l-55 -6 79 -8 c117 -11 212 -9 200 3 -13 13 -150 20
-224 11z"/>
<path d="M15695 14491 c-15 -6 -11 -9 20 -14 22 -4 60 -7 85 -7 42 1 44 2 26
15 -21 16 -97 19 -131 6z"/>
<path d="M15892 14461 c-14 -9 38 -21 91 -21 29 0 36 14 11 24 -23 9 -87 7
-102 -3z"/>
<path d="M14637 14434 c-686 -57 -1350 -223 -1972 -491 -580 -250 -1056 -560
-1449 -943 -176 -172 -273 -287 -452 -539 -10 -14 -19 -20 -21 -14 -6 17 82
156 182 288 89 119 435 477 520 540 22 16 65 50 95 75 138 116 375 274 596
400 130 74 405 211 526 263 145 62 311 128 343 137 17 5 55 18 85 30 30 12 69
25 85 30 17 4 41 12 55 18 14 5 45 15 70 22 25 7 65 18 90 26 25 7 72 21 105
29 115 31 134 38 129 47 -6 9 -20 7 -114 -17 -36 -9 -69 -21 -75 -26 -5 -5
-23 -9 -40 -9 -17 0 -39 -6 -50 -14 -11 -7 -33 -16 -50 -18 -16 -3 -43 -10
-60 -16 -16 -6 -55 -18 -85 -27 -66 -20 -183 -62 -225 -80 -16 -7 -50 -20 -75
-30 -25 -10 -59 -24 -77 -31 -17 -8 -34 -14 -37 -14 -5 0 -64 -26 -151 -65
-156 -72 -420 -208 -498 -258 -31 -20 -60 -37 -64 -37 -7 0 -10 -1 -197 -126
-65 -43 -127 -84 -137 -90 -11 -6 -36 -27 -57 -46 -22 -20 -52 -43 -68 -51
-16 -9 -49 -36 -74 -61 -24 -25 -51 -46 -58 -46 -16 0 -404 -384 -443 -439
-13 -18 -40 -52 -59 -75 -47 -57 -101 -132 -122 -168 -9 -16 -22 -37 -30 -46
-25 -32 -99 -177 -128 -252 -23 -57 -25 -234 -4 -305 34 -117 117 -201 247
-251 l72 -28 3770 0 c3636 1 3772 1 3820 19 28 10 56 23 64 29 7 6 23 15 35
21 28 14 84 100 97 150 19 67 5 229 -24 303 -73 180 -225 390 -425 589 -107
106 -283 253 -302 253 -5 0 -10 4 -10 8 0 14 -186 128 -310 190 l-55 27 -1274
3 c-961 2 -1277 0 -1288 -9 -10 -9 -13 -38 -11 -128 l3 -116 1260 -5 1260 -5
31 -22 c18 -13 41 -43 53 -68 20 -43 21 -59 21 -372 0 -321 -1 -329 -23 -367
-12 -22 -35 -49 -50 -60 -28 -21 -30 -21 -1310 -27 -705 -3 -1991 -10 -2857
-14 -1188 -6 -1581 -5 -1597 3 -25 14 -67 99 -95 192 -17 55 -20 98 -21 280
-1 246 11 323 84 542 63 192 57 183 204 280 71 47 144 93 160 102 17 9 57 33
90 52 124 73 458 230 620 291 22 9 49 19 60 24 11 5 49 18 85 29 36 12 74 25
85 30 23 10 187 59 285 84 36 10 81 22 100 28 19 7 53 15 75 19 22 4 76 15
120 24 174 36 233 46 311 54 44 4 87 12 95 16 8 5 57 13 109 16 52 4 129 12
170 19 102 17 1007 17 1100 1 36 -7 112 -16 170 -20 58 -5 118 -14 133 -20 16
-6 48 -11 73 -11 24 0 63 -5 86 -10 24 -6 90 -19 148 -30 58 -10 146 -29 195
-40 50 -12 108 -25 130 -29 60 -13 174 -47 330 -97 125 -40 174 -58 240 -85
11 -4 31 -11 45 -15 13 -4 56 -21 95 -39 38 -18 113 -51 165 -75 52 -23 99
-47 104 -51 19 -17 55 -9 75 17 23 29 27 64 11 95 -9 16 -111 91 -171 125 -11
6 -30 20 -42 31 -12 11 -44 33 -72 49 -27 16 -59 34 -70 41 -11 7 -27 15 -35
18 -8 4 -22 11 -30 16 -8 5 -71 36 -140 70 -69 34 -138 67 -153 75 -16 8 -37
14 -47 14 -9 0 -23 7 -30 15 -7 8 -26 15 -42 15 -16 0 -31 6 -34 15 -4 9 -19
15 -39 15 -20 0 -35 6 -39 15 -3 9 -18 15 -36 15 -17 0 -42 7 -55 16 -17 11
-34 14 -52 9 -24 -6 -7 -14 112 -55 77 -26 181 -64 230 -84 121 -50 375 -176
375 -186 0 -4 10 -10 23 -14 13 -3 35 -16 50 -30 14 -13 32 -27 39 -30 7 -3 1
-4 -14 -1 -15 3 -54 21 -87 40 -115 68 -354 172 -521 228 -337 113 -664 179
-1060 212 -214 18 -681 18 -903 -1z"/>
<path d="M16045 14431 c7 -12 93 -26 103 -17 3 4 0 11 -8 16 -20 13 -103 13
-95 1z"/>
<path d="M13776 14395 c-15 -8 -45 -15 -65 -15 -21 0 -46 -7 -57 -15 -18 -14
-17 -14 14 -15 18 0 49 7 69 15 19 8 47 15 62 16 14 0 42 7 61 14 l35 13 -45
1 c-25 1 -58 -6 -74 -14z"/>
<path d="M16175 14400 c3 -5 22 -12 43 -15 20 -4 59 -13 85 -22 50 -15 70 -12
49 9 -7 7 -28 12 -47 11 -19 -1 -39 5 -46 13 -13 16 -94 20 -84 4z"/>
<path d="M17475 11414 c-126 -8 -338 -52 -515 -108 -236 -75 -552 -252 -770
-432 -136 -112 -240 -221 -240 -250 0 -4 28 19 63 52 69 66 115 104 197 163
30 22 71 52 91 67 20 14 46 31 57 37 11 7 55 32 98 57 43 25 83 47 89 49 5 2
47 21 93 43 46 21 85 38 87 38 2 0 16 5 32 12 62 25 129 47 144 48 9 0 30 7
45 15 16 8 39 15 52 15 13 0 32 5 43 11 24 12 75 22 259 49 152 22 450 27 559
9 35 -5 103 -14 150 -19 47 -5 120 -17 161 -25 41 -9 93 -20 115 -24 22 -4 51
-13 65 -19 14 -5 54 -18 90 -28 36 -10 70 -20 75 -24 6 -4 33 -15 60 -25 353
-130 721 -400 994 -728 35 -42 69 -86 75 -96 6 -11 32 -49 59 -86 26 -36 47
-69 47 -72 0 -3 17 -33 38 -67 20 -34 48 -82 62 -109 14 -26 26 -43 28 -37 7
19 -73 196 -129 289 -22 34 -39 65 -39 67 0 3 -26 42 -111 170 -45 68 -182
224 -275 313 -260 249 -551 426 -892 540 -93 32 -127 41 -232 61 -30 6 -84 18
-120 26 -64 14 -471 26 -605 18z"/>
<path d="M5280 11154 c-14 -3 -68 -12 -120 -20 -143 -23 -279 -63 -453 -130
-74 -29 -258 -120 -319 -158 -42 -26 0 -36 49 -12 15 8 46 22 68 32 22 9 47
20 55 24 14 7 104 34 220 66 30 9 69 20 86 25 17 5 45 9 63 9 18 0 42 5 54 11
11 7 50 15 86 20 36 4 93 12 126 18 73 13 399 13 475 0 30 -5 78 -12 105 -15
28 -2 73 -11 100 -19 28 -7 83 -21 124 -31 212 -50 524 -200 718 -347 157
-119 212 -166 341 -296 147 -147 207 -221 318 -388 54 -81 149 -261 169 -318
6 -18 7 -18 16 -4 9 17 4 31 -53 174 -83 205 -155 331 -302 529 -69 93 -318
343 -390 392 -28 19 -89 61 -136 94 -135 95 -384 213 -545 260 -227 67 -333
82 -595 85 -129 2 -246 1 -260 -1z"/>
<path d="M4338 10803 c7 -3 16 -2 19 1 4 3 -2 6 -13 5 -11 0 -14 -3 -6 -6z"/>
<path d="M14710 9651 c0 -589 3 -1071 8 -1072 15 -2 73 -2 225 -1 l157 2 0
254 0 253 97 87 c58 51 106 86 119 86 15 0 36 -20 71 -67 78 -108 85 -116 148
-198 33 -42 69 -89 80 -105 51 -72 183 -246 211 -278 l32 -36 203 1 c112 1
210 2 217 3 6 0 12 4 12 8 0 8 -86 125 -166 227 -13 17 -36 48 -53 70 -16 22
-64 85 -106 140 -42 55 -98 129 -125 165 -27 36 -61 79 -74 95 -80 99 -156
211 -156 230 0 15 82 103 286 304 157 156 284 284 282 286 -8 8 -323 13 -406
7 l-93 -7 -127 -135 c-230 -245 -420 -432 -434 -428 -11 4 -13 108 -16 578 -1
316 -4 575 -6 577 -10 10 -67 15 -218 20 l-168 6 0 -1072z m266 1012 c6 -24 7
-24 21 -3 16 22 43 26 61 8 9 -9 12 -157 12 -604 0 -583 0 -592 -21 -618 -12
-15 -30 -26 -45 -26 -17 0 -24 -6 -24 -19 0 -24 -36 -69 -47 -58 -10 10 -11
1314 -1 1339 10 24 37 12 44 -19z m974 -590 c0 -5 -113 -122 -250 -262 -138
-140 -250 -260 -250 -268 0 -9 38 -66 85 -129 47 -63 123 -165 168 -226 46
-62 150 -202 230 -310 81 -109 147 -205 147 -213 0 -33 -31 -11 -82 58 -79
104 -277 372 -328 442 -24 33 -48 65 -52 70 -5 6 -30 39 -56 75 -26 36 -74
100 -106 142 -36 48 -56 85 -54 98 4 27 507 530 530 530 10 0 18 -3 18 -7z
m140 -4 c0 -6 -121 -131 -270 -278 -148 -146 -270 -270 -270 -274 0 -5 9 -21
21 -35 50 -66 97 -128 206 -272 64 -85 129 -169 143 -186 14 -17 32 -41 40
-54 8 -13 31 -42 50 -65 19 -23 61 -78 92 -121 31 -43 68 -92 82 -109 33 -38
34 -65 4 -65 -30 0 -38 7 -77 60 -17 25 -52 72 -77 105 -24 33 -57 78 -72 100
-15 22 -35 49 -45 60 -11 11 -33 40 -50 65 -48 69 -130 175 -139 178 -4 2 -8
8 -8 13 0 13 -72 109 -82 109 -4 0 -8 4 -8 10 0 5 -36 59 -81 120 -51 69 -78
114 -73 122 4 7 111 118 238 247 127 129 241 245 253 258 17 18 33 23 73 23
30 0 50 -4 50 -11z m-833 -676 c2 -6 -13 -24 -33 -40 -45 -34 -226 -193 -236
-208 -4 -5 -7 -19 -7 -30 0 -14 2 -16 6 -5 6 15 18 27 138 133 38 34 85 77
103 95 37 36 61 38 72 7 10 -26 1 -37 -74 -100 -33 -28 -80 -69 -105 -92 l-46
-42 -5 -248 -5 -248 -35 0 c-33 0 -35 2 -44 45 -7 31 -11 38 -14 23 -2 -12
-10 -27 -17 -33 -25 -21 -29 14 -30 259 l0 233 41 37 c23 20 75 66 115 102 41
37 90 80 109 98 35 31 60 36 67 14z"/>
<path d="M14971 10574 c0 -11 3 -14 6 -6 3 7 2 16 -1 19 -3 4 -6 -2 -5 -13z"/>
<path d="M20011 10706 c-8 -10 -10 -243 -8 -882 3 -767 5 -875 19 -920 60
-189 151 -268 378 -328 64 -17 123 -25 179 -25 46 0 86 -3 89 -5 2 -3 13 -1
23 5 17 9 19 23 19 158 0 166 3 161 -78 161 -56 0 -113 24 -160 65 -37 34 -46
49 -53 90 -4 28 -8 415 -8 861 l-1 812 -63 11 c-95 16 -322 15 -336 -3z m266
-18 c4 -7 10 -395 13 -863 l5 -850 32 -46 c28 -40 97 -99 116 -99 18 0 3 20
-39 49 -25 19 -51 45 -57 60 -6 14 -16 29 -22 33 -7 5 -10 290 -10 855 l0 848
25 0 25 0 3 -820 c1 -526 6 -823 12 -829 6 -6 10 -20 10 -33 0 -32 66 -102
118 -125 50 -23 47 -38 -9 -38 -21 0 -39 -4 -39 -10 0 -17 -43 -11 -80 11 -51
31 -89 69 -113 114 -22 40 -22 43 -27 875 -3 459 -2 845 2 858 8 24 23 29 35
10z m381 -1860 c8 -8 12 -50 12 -124 0 -103 -2 -113 -20 -119 -44 -14 -52 4
-53 128 -1 70 2 119 8 121 19 8 41 6 53 -6z m-84 -44 c3 -9 6 -42 6 -74 0 -66
-7 -90 -25 -90 -19 0 -25 24 -25 106 0 66 2 74 19 74 10 0 22 -7 25 -16z"/>
<path d="M1518 10694 c-5 -4 -8 -15 -8 -25 0 -9 -5 -19 -11 -21 -7 -2 -10 -10
-8 -17 6 -18 41 35 37 55 -2 9 -6 12 -10 8z"/>
<path d="M5520 10670 c-68 -11 -151 -29 -190 -41 -128 -39 -283 -121 -372
-196 -63 -54 -181 -184 -202 -223 -7 -14 -27 -50 -43 -80 -61 -112 -96 -229
-113 -375 -9 -84 -3 -360 9 -384 5 -9 12 -34 15 -56 16 -87 59 -198 111 -280
13 -22 32 -53 41 -70 29 -51 156 -176 229 -224 131 -86 235 -130 410 -171 28
-7 160 -14 296 -17 208 -4 253 -2 293 11 26 9 66 16 89 16 23 1 53 7 67 15 14
8 37 14 51 15 15 0 40 7 55 15 16 8 37 15 47 15 9 0 25 4 35 9 9 5 51 26 92
46 115 55 129 64 135 88 3 12 4 224 3 471 l-3 448 -375 0 -375 0 -3 -161 -2
-161 162 -2 163 -3 3 -198 2 -197 -32 -20 c-97 -59 -323 -103 -418 -81 -25 6
-64 11 -88 11 -78 0 -242 66 -322 129 -55 44 -120 106 -120 115 0 4 -11 22
-24 39 -41 54 -96 185 -96 228 0 15 -5 40 -11 56 -27 71 -13 274 28 408 53
176 167 313 331 398 51 26 100 47 110 47 11 0 33 7 51 16 46 23 374 23 419 0
17 -9 40 -16 50 -16 18 0 201 -90 229 -112 7 -5 20 -7 30 -3 18 6 165 244 171
276 7 40 -216 155 -348 179 -25 5 -63 13 -84 19 -45 11 -437 12 -506 1z m626
-70 c77 -27 158 -73 162 -92 4 -22 -81 -162 -101 -166 -27 -5 -20 25 20 97
l36 65 -27 20 c-14 11 -66 37 -114 58 -95 41 -80 53 24 18z m246 -107 c27 -24
22 -46 -27 -123 -25 -39 -45 -74 -45 -79 0 -16 -42 -46 -61 -43 -10 2 -39 14
-64 28 -131 69 -216 95 -373 111 -98 10 -315 -32 -427 -84 -125 -57 -243 -173
-312 -303 -26 -51 -43 -97 -74 -210 -16 -60 -23 -295 -10 -341 6 -19 13 -52
16 -74 2 -21 9 -43 15 -49 5 -5 10 -18 10 -29 0 -22 52 -118 94 -172 53 -69
60 -75 116 -118 30 -23 57 -44 60 -47 7 -7 83 -43 141 -69 68 -28 70 -41 7
-41 -29 0 -63 -3 -75 -6 -14 -4 -23 -2 -23 5 0 6 7 11 15 11 26 0 16 18 -14
25 -16 3 -35 13 -42 21 -6 8 -15 14 -20 14 -29 0 -229 170 -229 196 0 4 -11
22 -25 40 -14 18 -25 38 -25 44 0 6 -7 18 -15 26 -8 9 -15 24 -15 35 0 10 -4
19 -10 19 -5 0 -10 11 -10 25 0 13 -6 42 -14 62 -8 21 -17 78 -21 128 -10 135
-27 144 -21 10 8 -155 63 -308 147 -405 90 -104 177 -180 207 -180 6 0 12 -7
16 -15 3 -8 14 -15 25 -15 11 0 25 -9 31 -19 9 -18 7 -19 -18 -12 -136 39
-312 205 -388 366 -59 124 -77 218 -77 400 0 177 18 278 74 401 80 180 247
338 419 399 35 12 54 13 103 5 52 -10 60 -9 71 6 11 15 33 17 182 15 160 -2
226 -11 299 -42 11 -5 44 -18 73 -29 30 -11 70 -31 90 -45 46 -31 58 -31 74
-1 7 14 30 55 52 93 50 88 63 98 98 66z m146 -1262 l2 -424 -22 -25 c-35 -37
-214 -122 -258 -122 -8 0 -28 -7 -44 -15 -15 -8 -39 -15 -51 -15 -13 0 -46 -5
-73 -11 -51 -12 -107 -6 -97 11 3 6 31 10 61 10 40 0 54 4 54 14 0 8 -8 17
-17 19 -10 3 8 3 39 0 33 -3 63 -1 70 4 7 6 28 14 45 18 18 3 36 11 39 17 5 7
-4 9 -25 4 -90 -18 -96 -17 -41 7 86 37 139 66 160 87 19 19 20 36 20 430 0
403 0 410 20 410 15 0 20 -7 20 -27 0 -16 2 -197 5 -403 3 -280 1 -382 -8
-400 -7 -14 -37 -37 -67 -53 -55 -28 -74 -47 -47 -47 8 0 20 7 27 15 7 8 18
15 26 15 7 0 28 9 47 20 32 19 35 25 41 86 4 36 6 226 6 422 0 196 -1 363 0
370 0 9 11 12 33 10 l32 -3 3 -424z m-388 210 c0 -26 -8 -28 -146 -30 -97 -2
-123 1 -133 13 -25 30 -2 36 140 36 130 0 139 -1 139 -19z m-588 -603 c-9 -9
-42 -1 -42 12 0 4 12 5 26 2 15 -3 22 -8 16 -14z"/>
<path d="M5385 10415 l-30 -13 27 -1 c15 -1 30 4 33 10 11 17 2 18 -30 4z"/>
<path d="M5324 10385 c-19 -14 -18 -14 4 -15 13 0 22 6 22 15 0 19 -1 19 -26
0z"/>
<path d="M5245 10339 c-201 -124 -336 -387 -334 -649 0 -104 16 -61 25 71 4
57 13 114 20 128 8 14 14 38 14 54 0 15 5 27 10 27 6 0 10 8 10 18 0 9 18 49
40 89 46 82 193 238 240 255 17 5 30 16 30 24 0 18 4 19 -55 -17z"/>
<path d="M8491 10588 c-24 -51 -69 -147 -100 -213 -32 -66 -68 -145 -82 -175
-13 -30 -58 -125 -101 -211 -42 -86 -91 -187 -108 -225 -66 -143 -105 -224
-190 -399 -48 -99 -104 -214 -123 -255 -19 -41 -68 -145 -109 -230 -41 -85
-85 -176 -97 -202 -13 -27 -27 -50 -32 -54 -5 -3 -9 -14 -9 -24 0 -18 12 -19
213 -22 222 -3 254 0 263 29 3 10 11 32 19 48 7 17 27 66 45 110 68 174 88
212 113 219 12 3 199 6 415 6 l392 0 26 -57 c35 -80 49 -116 91 -228 8 -22 21
-52 29 -67 8 -14 14 -33 14 -41 0 -9 13 -17 33 -20 37 -6 429 2 436 9 2 2 -3
12 -12 22 -10 10 -17 26 -17 35 0 9 -15 49 -34 89 -18 40 -48 103 -65 140 -17
37 -40 91 -52 120 -11 29 -39 91 -61 138 -39 82 -48 102 -81 180 -9 19 -34 74
-56 123 -23 48 -41 90 -41 94 0 4 -20 48 -44 97 -45 93 -63 135 -86 196 -8 19
-20 44 -27 55 -7 11 -13 27 -13 36 0 10 -4 19 -9 21 -5 2 -28 48 -51 103 -23
55 -62 141 -86 192 -24 51 -53 116 -64 145 -12 29 -34 80 -50 113 -15 33 -40
87 -55 120 -14 32 -31 63 -38 67 -7 4 -44 8 -82 8 l-71 0 -43 -92z m101 55 c9
-10 39 -74 68 -143 56 -134 83 -197 107 -245 8 -16 37 -84 65 -150 27 -66 66
-154 85 -195 19 -41 48 -107 64 -147 15 -40 64 -152 108 -250 44 -98 88 -201
99 -228 11 -28 34 -80 50 -115 17 -36 65 -145 107 -244 42 -98 85 -196 96
-218 21 -40 18 -58 -7 -58 -17 0 -57 81 -182 375 -129 300 -239 555 -257 590
-8 17 -43 98 -78 180 -36 83 -74 170 -85 195 -11 25 -57 131 -102 235 -45 105
-104 240 -132 302 -45 101 -52 133 -29 133 4 0 15 -8 23 -17z m128 -118 c24
-55 65 -146 92 -202 26 -57 48 -105 48 -108 0 -6 20 -51 70 -160 15 -33 54
-118 85 -190 62 -141 96 -217 125 -280 74 -163 114 -253 134 -300 7 -16 28
-61 46 -100 18 -38 36 -79 40 -90 4 -11 25 -56 45 -100 21 -44 48 -102 60
-130 12 -27 35 -76 50 -108 47 -104 57 -137 40 -144 -26 -10 -65 6 -65 27 0
10 -4 22 -10 25 -5 3 -10 15 -10 25 0 10 -7 31 -14 47 -8 15 -17 35 -20 43 -3
8 -10 22 -15 30 -18 28 -41 88 -41 104 0 9 -4 16 -10 16 -5 0 -10 6 -10 13 0
6 -14 39 -30 71 -17 32 -30 65 -30 72 0 7 -6 25 -14 41 -21 41 -78 165 -86
188 -26 68 -53 131 -61 140 -5 5 -9 16 -9 24 0 8 -6 22 -13 30 -7 9 -21 40
-31 70 -11 29 -29 73 -42 98 -13 24 -24 52 -24 62 0 10 -7 24 -15 31 -8 7 -15
20 -15 29 0 9 -4 21 -9 26 -5 6 -19 35 -31 65 -25 60 -51 118 -100 225 -18 38
-33 74 -35 80 -2 13 -20 55 -55 130 -30 64 -52 121 -52 129 1 3 -15 35 -34 71
-33 64 -42 104 -27 119 12 11 29 -16 73 -119z m-193 -334 c-2 -20 -37 -112
-76 -206 -40 -93 -98 -235 -130 -315 -33 -80 -82 -199 -110 -265 -28 -65 -51
-125 -51 -132 0 -6 -11 -25 -24 -40 -18 -20 -28 -25 -35 -17 -13 12 -9 25 79
239 72 174 174 421 255 620 31 77 62 146 67 152 17 21 30 3 25 -36z m50 -72
c15 -28 17 -81 4 -94 -5 -6 -26 -50 -46 -100 -20 -49 -47 -112 -59 -140 -13
-27 -51 -117 -86 -200 -131 -313 -147 -345 -176 -345 -28 0 -37 23 -22 58 6
15 14 36 18 47 13 32 101 247 116 282 8 17 14 38 14 47 0 9 5 16 10 16 6 0 10
7 10 16 0 9 7 28 15 42 8 15 28 63 45 107 18 44 36 89 40 100 5 11 18 43 30
70 12 28 25 59 30 70 4 11 11 28 14 38 8 24 28 17 43 -14z m58 -224 c10 -27
21 -54 25 -60 4 -5 15 -32 25 -60 10 -27 51 -134 91 -237 41 -103 75 -201 76
-218 l3 -30 -269 -1 c-147 0 -271 2 -274 5 -3 4 0 18 7 34 7 15 19 41 25 57
19 46 47 107 62 137 8 14 14 31 14 37 0 6 11 34 24 63 13 29 47 109 76 178 52
125 77 167 90 153 4 -5 15 -30 25 -58z m-576 -814 c11 -7 7 -24 -22 -92 -20
-46 -56 -136 -82 -200 -54 -135 -64 -152 -85 -139 -18 11 -9 37 84 262 81 198
75 188 105 169z m929 -33 c-4 -10 -101 -14 -422 -18 -437 -5 -435 -5 -436 -48
0 -7 -4 -20 -10 -30 -5 -9 -16 -35 -25 -57 -9 -22 -23 -53 -30 -70 -14 -30
-26 -60 -61 -145 -10 -25 -22 -51 -27 -57 -11 -15 -46 -17 -67 -3 -12 8 -11
12 8 30 12 11 22 29 22 40 0 10 8 33 17 52 9 18 22 45 30 60 7 14 13 36 13 47
0 12 5 21 10 21 6 0 10 6 10 13 0 7 9 29 20 50 11 20 20 46 20 57 0 11 4 20 9
20 5 0 12 11 15 25 l6 25 451 0 c356 0 450 -3 447 -12z"/>
<path d="M2560 10608 c-1 -24 -7 -54 -15 -68 -8 -14 -14 -42 -15 -63 0 -21 -5
-47 -11 -58 -6 -11 -14 -41 -19 -67 -4 -26 -22 -110 -40 -187 -17 -77 -36
-164 -41 -194 -5 -29 -14 -62 -19 -72 -6 -10 -10 -33 -10 -52 0 -19 -7 -48
-15 -63 -8 -16 -15 -42 -15 -57 0 -26 -17 -110 -41 -201 -6 -21 -15 -60 -19
-85 -5 -25 -16 -73 -24 -106 -36 -147 -49 -204 -56 -259 -4 -32 -13 -63 -19
-69 -6 -6 -11 -28 -11 -48 0 -21 -5 -50 -11 -66 -7 -15 -16 -48 -20 -73 -9
-52 -33 -150 -48 -197 -5 -18 -6 -35 -2 -37 14 -9 393 -8 401 0 5 5 13 34 19
64 5 30 17 87 26 125 9 39 20 95 24 126 5 30 13 65 20 77 6 11 11 38 11 59 0
21 7 51 15 67 8 15 15 45 15 65 1 20 7 47 15 61 8 14 14 41 15 61 0 20 7 56
15 79 8 23 15 56 15 72 0 16 4 37 9 46 5 9 12 42 16 72 4 30 11 63 16 72 5 9
9 26 9 37 0 12 6 21 14 21 22 0 34 -23 106 -205 28 -72 43 -108 70 -170 5 -11
30 -72 55 -135 26 -63 53 -128 60 -145 8 -16 21 -48 30 -70 9 -22 20 -49 25
-60 5 -11 30 -72 55 -135 26 -63 53 -127 61 -142 8 -14 14 -35 14 -46 0 -24
15 -30 94 -34 57 -3 58 -3 76 32 21 42 38 80 80 185 17 44 36 88 41 98 5 9 16
39 25 65 18 54 39 105 60 145 8 16 14 35 14 42 0 7 6 26 14 42 8 15 29 64 46
108 18 44 36 89 41 100 5 11 18 45 29 75 22 58 37 94 51 123 5 9 16 39 25 65
18 53 34 77 44 65 13 -14 32 -76 41 -128 4 -27 15 -79 24 -115 22 -89 44 -186
55 -244 5 -26 13 -62 19 -80 5 -17 12 -52 16 -78 3 -26 10 -50 16 -53 5 -4 9
-28 9 -54 0 -26 5 -52 11 -58 6 -6 14 -35 19 -64 12 -69 37 -188 45 -216 8
-26 -6 -25 235 -25 114 0 166 4 168 12 4 12 -19 117 -44 202 -8 26 -14 60 -14
75 0 16 -7 38 -15 49 -8 10 -15 36 -15 57 0 20 -4 45 -10 55 -5 9 -14 40 -20
67 -6 28 -18 77 -26 110 -8 33 -19 80 -24 105 -4 25 -13 58 -19 73 -6 16 -11
39 -11 52 0 12 -7 36 -15 51 -8 16 -15 43 -15 60 0 18 -7 45 -15 60 -8 16 -15
45 -15 64 0 20 -4 40 -9 45 -6 6 -15 35 -20 65 -6 30 -17 84 -26 120 -9 36
-20 81 -24 100 -21 90 -33 137 -43 165 -6 17 -14 50 -18 75 -4 25 -12 58 -19
73 -6 16 -11 42 -11 58 0 16 -4 37 -10 47 -5 9 -14 40 -20 67 -6 28 -17 75
-24 105 l-12 55 -116 3 -116 3 -22 -73 c-13 -40 -26 -77 -30 -83 -4 -5 -10
-21 -13 -35 -6 -26 -80 -239 -96 -275 -16 -35 -70 -189 -77 -218 -3 -15 -10
-30 -15 -33 -5 -3 -9 -14 -9 -24 0 -17 -6 -35 -42 -115 -4 -11 -12 -33 -17
-50 -5 -16 -28 -82 -51 -145 -23 -63 -48 -135 -56 -160 -8 -24 -19 -49 -24
-54 -6 -6 -10 -20 -10 -33 0 -23 -16 -30 -35 -15 -6 4 -21 34 -33 67 -13 33
-27 69 -32 80 -4 11 -22 58 -40 105 -18 47 -38 99 -45 115 -38 85 -45 104 -45
118 0 9 -4 18 -9 21 -5 3 -16 29 -26 58 -9 29 -23 67 -30 83 -13 29 -60 147
-92 230 -8 22 -21 52 -29 67 -8 14 -14 33 -14 42 0 9 -4 24 -10 34 -26 47
-100 242 -100 262 0 26 -19 30 -141 30 l-109 0 0 -42z m128 10 c5 -7 35 -78
65 -158 154 -406 270 -708 315 -825 198 -508 209 -541 176 -552 -11 -4 -26 26
-69 142 -15 39 -37 97 -50 130 -14 33 -86 222 -161 420 -75 198 -146 383 -156
410 -10 28 -25 66 -32 85 -8 19 -39 101 -70 183 -31 81 -56 154 -56 162 0 18
24 20 38 3z m1239 0 c6 -7 22 -67 37 -133 15 -66 43 -181 61 -255 18 -74 49
-207 70 -295 30 -130 63 -267 121 -505 2 -8 12 -55 23 -103 12 -49 27 -117 35
-150 29 -118 75 -313 97 -408 12 -53 19 -104 15 -114 -12 -32 -40 8 -55 77 -8
35 -26 115 -42 178 -15 63 -46 192 -68 285 -22 94 -56 235 -75 315 -47 195
-155 652 -171 720 -7 30 -29 123 -49 207 -46 196 -46 193 -22 193 7 0 18 -6
23 -12z m-1139 -61 c11 -29 53 -135 92 -237 40 -102 76 -194 81 -205 5 -11 18
-45 29 -75 24 -65 37 -95 56 -133 8 -16 14 -35 14 -42 0 -7 6 -26 14 -42 8
-15 22 -48 31 -73 9 -25 21 -53 26 -62 5 -10 9 -23 9 -29 0 -6 7 -27 16 -47 8
-21 22 -53 31 -72 8 -19 21 -48 29 -63 8 -16 14 -36 14 -45 0 -9 7 -26 15 -36
8 -11 15 -30 15 -42 0 -12 7 -27 15 -34 8 -7 15 -23 15 -37 0 -13 5 -33 10
-43 11 -21 -2 -70 -19 -70 -12 0 -41 57 -41 81 0 9 -6 30 -14 46 -25 48 -46
100 -46 113 0 7 -7 26 -16 43 -32 60 -34 67 -34 91 0 13 -7 29 -15 36 -8 7
-15 22 -15 33 0 11 -13 49 -30 84 -16 34 -30 69 -30 77 0 8 -8 29 -17 48 -30
60 -33 68 -33 81 0 13 -62 169 -80 199 -6 10 -10 26 -10 36 0 9 -7 27 -15 38
-8 12 -16 32 -19 45 -4 23 -17 59 -38 104 -5 12 -10 27 -12 35 -3 17 -22 63
-42 103 -8 16 -14 36 -14 44 0 9 -9 31 -21 50 -16 26 -18 37 -9 48 18 22 35 8
58 -48z m1219 51 c4 -7 13 -35 20 -63 6 -27 19 -79 28 -115 9 -36 20 -87 25
-113 5 -27 13 -54 18 -60 6 -7 12 -30 15 -52 3 -22 12 -69 21 -105 8 -36 21
-90 27 -120 6 -30 15 -59 20 -64 5 -6 9 -22 9 -37 0 -15 5 -40 11 -56 6 -15
18 -55 25 -88 14 -57 21 -85 59 -235 9 -36 19 -83 22 -105 3 -22 9 -45 15 -52
5 -6 11 -33 14 -59 2 -26 8 -52 14 -59 5 -6 12 -29 14 -49 3 -21 10 -52 15
-69 18 -62 32 -123 41 -176 5 -29 13 -58 19 -64 6 -6 11 -26 11 -45 0 -18 5
-43 12 -55 6 -12 15 -44 19 -72 4 -27 9 -57 10 -65 3 -11 -5 -15 -31 -15 -33
0 -35 2 -38 35 -2 19 -8 39 -13 44 -5 6 -9 28 -9 50 -1 23 -7 52 -15 66 -8 14
-14 40 -15 58 0 18 -6 48 -14 66 -8 19 -14 50 -14 70 0 20 -6 44 -13 52 -7 9
-14 37 -15 62 0 25 -6 48 -13 50 -6 2 -11 23 -11 46 0 23 -7 51 -15 62 -8 10
-15 37 -15 59 0 22 -7 53 -15 69 -8 15 -15 45 -15 65 -1 20 -7 47 -15 61 -8
14 -14 42 -15 63 0 21 -7 49 -16 62 -10 16 -14 34 -10 51 5 17 0 36 -15 60
-12 19 -18 42 -15 51 4 9 0 37 -8 62 -21 66 -36 129 -45 181 -4 25 -13 55 -19
67 -7 12 -12 37 -12 55 -1 18 -7 44 -15 58 -8 14 -14 43 -15 66 0 22 -5 45
-10 50 -6 6 -12 31 -14 55 -1 24 -8 54 -15 67 -6 12 -13 37 -15 55 -2 17 -4
37 -6 42 -10 38 18 62 37 33z m-1333 -604 c4 -15 -9 -101 -33 -212 -22 -103
-60 -286 -86 -407 -25 -121 -50 -236 -55 -255 -11 -40 -54 -253 -77 -375 -15
-83 -26 -105 -50 -105 -18 0 -15 50 11 165 8 39 31 144 50 235 19 91 49 230
66 310 48 228 77 367 100 480 30 152 41 190 55 190 7 0 16 -12 19 -26z m1154
-6 c3 -21 -25 -101 -78 -223 -4 -11 -23 -58 -40 -105 -18 -47 -39 -98 -46
-115 -7 -16 -42 -106 -77 -200 -36 -93 -94 -244 -130 -335 -123 -312 -137
-350 -137 -358 0 -5 -9 -17 -20 -27 -15 -14 -23 -16 -31 -8 -13 13 -22 -13
111 328 55 143 107 276 114 295 8 19 41 105 74 190 33 85 93 238 132 340 89
233 98 252 113 247 6 -2 13 -15 15 -29z m36 -151 c1 -40 -5 -76 -16 -98 -9
-19 -29 -65 -44 -104 -15 -38 -32 -83 -39 -100 -7 -16 -20 -50 -30 -75 -9 -25
-23 -58 -31 -75 -7 -16 -22 -52 -32 -80 -26 -67 -100 -254 -113 -285 -29 -66
-38 -88 -52 -125 -8 -22 -29 -76 -47 -120 -18 -44 -39 -96 -47 -115 -34 -85
-56 -105 -92 -81 -12 8 -11 15 7 46 12 20 22 42 22 50 0 8 6 29 14 47 8 18 21
49 30 70 9 20 16 41 16 46 0 6 6 23 14 39 27 52 46 101 46 117 0 9 4 16 10 16
5 0 13 18 16 40 4 22 10 37 15 34 5 -3 9 7 9 21 0 15 6 39 14 53 8 15 29 65
47 112 35 94 41 109 62 160 46 112 57 140 57 150 0 7 11 34 25 62 14 27 25 56
25 63 0 7 6 26 14 42 26 50 46 101 46 115 0 7 7 24 16 37 24 34 37 13 38 -62z
m-1131 33 c10 -40 -7 -198 -23 -214 -5 -5 -10 -31 -10 -56 0 -25 -7 -55 -15
-66 -8 -10 -15 -38 -15 -60 0 -23 -7 -58 -15 -77 -8 -20 -15 -50 -15 -67 0
-17 -5 -40 -10 -50 -6 -10 -15 -45 -20 -77 -13 -80 -35 -185 -42 -203 -4 -8
-9 -37 -12 -65 -4 -27 -11 -54 -16 -59 -6 -6 -10 -30 -10 -56 0 -25 -7 -54
-15 -64 -8 -11 -15 -38 -15 -60 0 -60 -19 -91 -55 -91 -36 0 -45 30 -20 68 8
14 18 49 22 78 3 30 10 62 14 71 5 9 12 41 14 70 3 29 10 57 15 62 6 6 10 30
10 56 0 25 7 58 15 74 8 15 15 46 15 67 0 22 7 56 15 76 8 19 15 52 15 72 0
20 5 42 11 48 6 6 14 41 16 77 3 36 9 66 13 66 4 0 10 28 13 61 3 34 10 66 16
72 6 6 11 28 11 49 0 21 7 55 15 75 8 19 15 47 15 61 0 13 5 42 12 64 14 48
38 47 51 -2z"/>
<path d="M1456 10585 c-3 -8 -1 -15 4 -15 6 0 10 7 10 15 0 8 -2 15 -4 15 -2
0 -6 -7 -10 -15z"/>
<path d="M1431 10534 c0 -11 3 -14 6 -6 3 7 2 16 -1 19 -3 4 -6 -2 -5 -13z"/>
<path d="M1407 10494 c-4 -4 -7 -14 -7 -23 0 -11 3 -12 11 -4 6 6 10 16 7 23
-2 6 -7 8 -11 4z"/>
<path d="M21790 10405 c0 -72 16 -89 21 -22 5 53 0 87 -12 87 -5 0 -9 -29 -9
-65z"/>
<path d="M11728 10422 l-48 -3 0 -148 c0 -127 -2 -150 -16 -155 -9 -3 -54 -6
-100 -6 l-85 0 3 -142 3 -142 85 -3 c47 -2 91 -6 97 -8 10 -3 13 -102 16 -417
4 -454 6 -478 63 -586 57 -109 155 -185 301 -237 61 -21 86 -24 243 -24 129
-1 188 3 224 14 27 8 72 15 101 15 28 0 56 5 63 12 14 14 16 100 3 126 -5 9
-14 50 -20 90 -14 89 -26 116 -49 107 -112 -47 -148 -55 -249 -55 -147 0 -209
31 -247 123 -13 31 -15 101 -17 433 0 217 2 398 5 401 3 3 104 5 223 4 120 -1
226 1 236 4 15 6 17 23 17 146 l0 139 -72 1 c-40 1 -143 1 -228 0 -85 0 -161
3 -169 8 -11 7 -13 39 -12 149 1 87 -2 143 -8 146 -11 7 -288 13 -363 8z m230
-182 c3 -157 -3 -185 -33 -160 -12 10 -15 39 -15 154 0 98 4 146 12 154 27 27
33 3 36 -148z m92 10 c0 -130 -1 -139 -20 -145 -11 -3 -24 -3 -30 0 -6 4 -10
62 -10 145 0 124 2 139 18 142 39 9 42 1 42 -142z m390 -239 c0 -52 -4 -70
-15 -75 -21 -8 -35 24 -35 82 0 53 4 62 32 62 16 0 18 -9 18 -69z m88 -43 l-3
-112 -235 0 -235 -1 1 -395 c0 -217 4 -417 9 -444 10 -60 58 -131 97 -145 15
-6 28 -15 28 -20 0 -6 11 -13 25 -17 14 -4 24 -11 22 -18 -6 -18 -46 -19 -63
-2 -8 9 -24 16 -34 16 -25 0 -120 94 -120 118 0 11 -7 36 -15 55 -13 31 -15
107 -15 471 l0 436 238 2 237 3 2 75 c1 41 2 78 2 83 1 4 15 7 31 7 l31 0 -3
-112z m-573 -39 c4 -6 7 -173 7 -372 1 -452 7 -547 38 -613 24 -49 70 -104 88
-104 10 0 47 -39 41 -44 -11 -9 -69 17 -105 48 -57 49 -91 123 -103 231 -12
97 -15 847 -4 858 10 10 31 8 38 -4z m-258 -35 c10 -27 -12 -35 -87 -35 -76 0
-97 9 -87 35 5 13 23 16 87 16 64 0 82 -3 87 -16z m918 -1054 c9 -17 18 -52
20 -78 3 -26 10 -61 16 -79 16 -50 -1 -73 -54 -72 -64 3 -74 11 -91 88 -22 97
-21 113 7 109 18 -2 24 -13 34 -63 7 -33 9 -70 6 -82 -4 -17 -1 -23 11 -23 21
0 22 87 1 114 -18 24 -20 87 -3 104 20 20 37 14 53 -18z"/>
<path d="M1315 10320 c3 -5 8 -10 11 -10 2 0 4 5 4 10 0 6 -5 10 -11 10 -5 0
-7 -4 -4 -10z"/>
<path d="M1290 10270 c0 -5 5 -10 11 -10 5 0 7 5 4 10 -3 6 -8 10 -11 10 -2 0
-4 -4 -4 -10z"/>
<path d="M21819 10173 c-2 -21 -2 -54 1 -73 5 -33 6 -31 13 20 9 73 9 90 -2
90 -5 0 -10 -17 -12 -37z"/>
<path d="M17025 10139 c-83 -5 -202 -28 -250 -49 -109 -47 -148 -68 -214 -117
-42 -32 -97 -85 -124 -120 -74 -98 -147 -269 -147 -345 0 -20 -5 -49 -11 -65
-14 -36 -14 -160 0 -196 6 -16 11 -45 11 -65 0 -35 24 -120 52 -182 35 -79 46
-100 83 -150 51 -70 59 -78 125 -129 90 -71 189 -114 355 -155 86 -21 374 -22
415 -1 16 8 43 15 59 15 71 0 231 84 347 183 66 57 184 251 184 305 0 11 5 24
10 27 6 3 10 26 10 49 0 24 7 63 15 86 8 24 15 77 15 120 0 43 -7 96 -15 120
-8 23 -15 62 -15 86 0 23 -4 45 -9 48 -5 3 -11 18 -14 33 -9 49 -36 110 -74
170 -38 61 -168 193 -189 193 -6 0 -17 6 -23 14 -15 18 -82 50 -158 75 -142
48 -262 61 -438 50z m346 -75 c262 -78 432 -316 455 -640 11 -148 -31 -348
-96 -461 -16 -29 -57 -82 -91 -118 -62 -66 -184 -155 -212 -155 -9 0 -19 -4
-22 -10 -10 -16 28 -12 65 8 120 62 230 171 289 286 23 44 41 86 41 93 0 7 4
21 9 31 36 70 53 352 27 433 -9 26 -13 55 -10 63 3 9 -1 27 -10 41 -9 13 -16
31 -16 39 0 20 -56 125 -81 152 -10 11 -19 26 -19 32 0 7 -4 12 -9 12 -8 0
-41 54 -41 67 0 11 23 -2 63 -37 44 -39 105 -133 139 -215 47 -112 53 -154 53
-347 0 -136 -3 -190 -12 -199 -7 -7 -13 -22 -13 -34 0 -27 -34 -123 -49 -138
-6 -6 -11 -15 -11 -19 0 -9 -26 -48 -65 -97 -31 -41 -119 -121 -131 -121 -6 0
-17 -6 -23 -14 -31 -37 -233 -117 -275 -109 -30 6 -30 26 0 31 47 7 64 13 64
23 0 8 -13 10 -35 6 -19 -3 -35 -4 -35 -1 0 2 28 17 63 32 176 81 310 240 363
428 22 79 30 313 14 413 -36 226 -177 413 -370 491 -103 41 -117 49 -94 49 11
1 45 -6 75 -15z m-485 -133 c-3 -5 1 -12 10 -15 28 -11 62 -6 68 9 17 45 348
-13 376 -66 9 -16 6 -17 -27 -13 -21 3 -49 9 -63 14 -98 32 -136 33 -227 10
-113 -29 -167 -57 -224 -117 -53 -54 -109 -153 -109 -192 -1 -14 -7 -37 -15
-51 -16 -29 -22 -309 -6 -325 5 -6 11 -29 14 -53 2 -24 10 -49 16 -55 6 -6 11
-18 11 -25 0 -18 60 -110 86 -134 29 -24 148 -88 167 -88 21 0 22 -16 1 -24
-28 -11 -65 -6 -80 9 -9 8 -24 15 -33 15 -10 0 -24 7 -31 15 -7 8 -17 15 -22
15 -34 0 -158 161 -158 204 0 6 -7 25 -16 41 -9 17 -18 64 -20 105 -2 41 -8
91 -13 110 -8 30 -9 24 -10 -41 -2 -134 31 -247 97 -334 33 -44 61 -68 147
-128 45 -32 18 -31 -47 1 -163 80 -243 236 -255 492 -9 205 27 356 113 467 52
67 99 106 169 139 50 24 91 32 81 15z m339 -100 c66 -10 140 -46 186 -92 47
-47 99 -155 99 -205 0 -22 7 -57 15 -79 17 -48 19 -136 4 -185 -5 -19 -14 -61
-19 -92 -12 -79 -51 -153 -117 -220 -85 -86 -130 -102 -284 -102 -103 0 -134
3 -170 19 -65 28 -159 101 -159 123 0 5 -6 15 -14 21 -21 18 -43 95 -61 216
-15 102 -15 118 0 220 19 127 54 206 117 272 48 50 146 103 191 104 17 0 41 5
52 10 19 8 35 7 160 -10z"/>
<path d="M16800 9879 c-151 -101 -234 -285 -220 -484 l2 -30 9 30 c5 17 10 60
10 96 0 37 7 78 15 94 8 15 14 32 14 39 0 6 11 31 25 56 13 25 29 56 35 69 15
33 59 75 120 112 28 17 50 35 50 40 0 15 -12 10 -60 -22z"/>
<path d="M13405 10123 c-153 -36 -337 -133 -411 -216 -89 -99 -165 -248 -185
-362 -5 -27 -13 -70 -18 -95 -13 -60 -13 -165 0 -215 6 -22 14 -62 19 -90 9
-62 23 -102 66 -189 57 -115 103 -171 189 -235 101 -75 190 -115 335 -150 135
-33 445 -22 545 20 11 4 45 18 75 30 112 46 208 120 288 223 49 62 112 182
112 212 0 9 6 30 14 47 37 84 35 371 -5 517 -25 93 -92 213 -159 284 -109 115
-209 168 -416 221 -79 20 -362 19 -449 -2z m504 -68 c277 -94 439 -368 430
-724 -4 -144 -45 -286 -115 -399 -58 -91 -200 -214 -275 -237 -13 -4 -28 -11
-34 -15 -10 -8 -91 -22 -83 -15 2 2 41 23 87 46 126 63 229 165 286 284 71
146 95 297 76 483 -27 258 -145 438 -362 547 -26 14 -54 25 -61 25 -7 1 -26 7
-43 15 l-30 13 26 1 c14 1 58 -10 98 -24z m-514 -124 c-3 -5 4 -13 16 -16 25
-8 69 2 69 15 0 31 252 -5 337 -47 53 -26 56 -46 7 -38 -22 4 -48 10 -59 15
-11 5 -49 13 -84 19 -55 9 -77 8 -150 -10 -111 -27 -144 -45 -217 -121 -64
-65 -96 -118 -109 -178 -4 -19 -11 -40 -17 -47 -11 -14 -4 -341 9 -406 6 -26
15 -53 21 -59 7 -7 12 -18 12 -26 0 -14 38 -69 75 -108 24 -26 147 -94 169
-94 21 0 21 -16 0 -24 -28 -11 -65 -6 -80 9 -9 8 -24 15 -35 15 -10 0 -19 4
-19 9 0 5 -9 13 -20 16 -49 16 -170 172 -170 220 0 7 -7 26 -15 41 -8 16 -15
54 -15 84 0 30 -7 75 -14 100 l-15 45 0 -60 c-2 -183 60 -323 189 -427 19 -16
39 -28 46 -28 6 0 14 -7 18 -15 18 -47 -125 32 -183 101 -44 54 -86 145 -108
234 -22 93 -24 305 -4 400 33 156 139 304 261 363 55 26 96 35 85 18z m838
-38 c69 -72 94 -113 146 -238 35 -83 42 -142 38 -320 -2 -109 -9 -198 -17
-225 -71 -244 -226 -403 -470 -485 -62 -21 -109 -21 -113 0 -1 5 15 12 36 16
21 3 43 11 50 18 6 6 18 11 27 11 9 0 37 11 61 25 24 13 60 33 79 44 87 48
240 255 240 324 0 13 6 29 12 35 18 18 30 128 30 272 0 144 -12 254 -30 272
-6 6 -12 19 -12 28 0 9 -13 44 -30 78 -27 56 -45 83 -77 117 -7 8 -13 18 -13
23 0 5 -7 15 -15 22 -14 12 -12 30 4 30 5 0 29 -21 54 -47z m-498 -62 c28 -4
71 -17 97 -29 51 -23 125 -85 139 -117 5 -11 13 -27 18 -35 24 -41 41 -94 41
-128 0 -20 5 -66 11 -102 18 -108 -6 -258 -59 -370 -24 -50 -118 -141 -177
-170 -46 -22 -61 -24 -185 -24 -134 1 -136 1 -199 34 -67 36 -147 117 -158
160 -3 14 -11 31 -16 39 -13 15 -24 83 -37 229 -8 85 -7 109 5 138 8 20 15 49
15 65 0 53 58 157 123 220 33 33 66 59 72 59 7 0 26 7 41 15 16 8 43 15 59 16
17 0 39 5 50 10 19 8 56 6 160 -10z"/>
<path d="M13338 9897 c-9 -7 -26 -19 -38 -27 -33 -22 -100 -85 -100 -94 0 -4
-11 -22 -24 -39 -52 -69 -98 -248 -85 -332 3 -22 7 -31 8 -20 2 11 4 29 7 40
2 11 9 56 15 99 19 147 109 293 213 345 26 12 46 27 46 32 0 13 -22 11 -42 -4z"/>
<path d="M18655 10114 c-49 -13 -133 -45 -185 -71 -177 -87 -316 -260 -372
-463 -19 -70 -16 -410 4 -483 30 -108 97 -226 173 -306 116 -122 192 -162 425
-225 65 -17 395 -23 404 -7 4 5 28 13 54 16 26 4 61 13 79 21 17 8 35 14 41
14 11 0 115 55 157 83 42 28 180 170 198 204 44 82 63 130 99 253 18 61 17
326 0 405 -52 227 -185 403 -377 494 -99 48 -101 48 -198 71 -133 30 -377 27
-502 -6z m511 -50 c214 -69 337 -194 417 -424 27 -76 30 -101 34 -235 4 -125
1 -165 -15 -241 -53 -237 -223 -430 -434 -494 -49 -15 -38 5 15 29 71 32 169
103 214 155 56 64 110 161 140 251 25 74 27 92 27 260 1 162 -1 188 -22 255
-72 226 -210 367 -431 440 -47 16 -51 19 -25 19 17 1 53 -6 80 -15z m-492
-138 c-3 -8 -14 -16 -25 -19 -10 -3 -19 -10 -19 -16 0 -16 16 -13 36 6 10 11
29 16 49 15 19 -2 37 3 44 12 37 45 331 -9 381 -69 13 -15 10 -16 -26 -10 -21
4 -63 14 -92 22 -79 22 -147 20 -237 -5 -79 -23 -145 -61 -195 -111 -32 -33
-85 -119 -93 -151 -3 -14 -10 -43 -16 -65 -23 -91 -31 -190 -21 -250 5 -33 10
-81 10 -107 0 -26 4 -49 9 -52 5 -3 12 -21 15 -40 4 -19 13 -48 22 -64 21 -43
128 -152 149 -152 9 0 28 -9 42 -20 14 -11 34 -20 44 -20 27 0 32 -17 6 -24
-34 -9 -67 -7 -67 4 0 5 -12 13 -27 16 -26 7 -64 30 -114 69 -30 23 -99 117
-99 134 0 6 -9 27 -19 47 -11 20 -18 41 -15 48 3 7 -2 29 -11 49 -22 53 -21
320 2 391 30 93 66 169 92 195 10 10 24 26 32 37 8 11 29 31 47 44 17 13 32
27 32 32 0 40 -122 -77 -168 -162 -17 -30 -41 -93 -53 -139 -19 -75 -21 -103
-16 -245 4 -132 8 -173 27 -226 45 -130 93 -196 190 -259 66 -42 47 -55 -27
-18 -100 51 -181 163 -219 302 -24 90 -30 330 -10 425 34 162 134 302 260 361
68 32 88 36 80 15z m887 -84 c42 -55 99 -166 99 -192 0 -9 5 -21 11 -27 5 -5
12 -32 15 -59 3 -27 12 -68 20 -92 17 -53 19 -215 2 -245 -7 -12 -15 -47 -19
-77 -6 -54 -30 -127 -61 -185 -9 -16 -24 -44 -33 -61 -22 -43 -158 -173 -208
-200 -132 -70 -212 -98 -263 -92 -48 5 -33 19 41 39 104 27 179 72 272 166 90
89 143 181 179 308 20 71 28 413 11 455 -6 14 -12 37 -14 52 -6 40 -89 196
-123 231 -17 17 -30 37 -30 44 0 7 -6 13 -12 13 -9 0 -9 3 1 9 20 13 62 -21
112 -87z m-542 -11 c35 -5 69 -15 74 -20 6 -6 19 -11 28 -11 10 0 46 -29 81
-64 60 -60 73 -83 106 -187 14 -42 16 -337 3 -371 -5 -13 -14 -41 -20 -63 -16
-61 -86 -162 -134 -192 -96 -62 -112 -67 -252 -66 -111 0 -137 3 -175 21 -109
50 -166 114 -206 230 -20 59 -23 86 -24 232 0 142 3 172 20 218 30 79 79 155
125 194 38 32 135 78 168 79 17 0 41 5 52 10 20 9 41 8 154 -10z"/>
<path d="M9850 10110 l-125 -5 -2 -525 c-1 -589 -1 -596 68 -737 94 -192 286
-289 577 -292 105 -2 137 1 154 14 12 8 37 15 55 15 17 0 34 4 38 9 3 5 19 12
35 16 30 7 96 39 145 71 33 21 45 8 45 -49 0 -21 6 -40 13 -42 18 -6 125 -9
270 -7 l127 2 0 765 0 765 -57 1 c-32 0 -67 2 -78 5 -11 2 -77 1 -147 -3
l-128 -6 0 -520 c0 -510 0 -520 -21 -556 -27 -47 -96 -97 -189 -138 -69 -30
-83 -33 -182 -33 -160 0 -237 36 -290 134 -21 40 -21 48 -23 574 -1 293 -4
534 -6 536 -8 7 -159 11 -279 6z m160 -560 l5 -525 26 -55 c31 -63 63 -99 122
-138 39 -25 40 -27 18 -30 -15 -3 -43 10 -80 35 -64 44 -114 118 -130 193 -8
35 -17 934 -11 1043 0 5 10 7 23 5 l22 -3 5 -525z m80 51 c0 -402 3 -490 16
-543 29 -117 56 -154 153 -205 29 -16 54 -33 55 -39 2 -16 -53 -16 -70 0 -8 9
-24 16 -34 16 -10 0 -45 26 -79 58 -98 93 -94 66 -98 655 -3 280 -2 515 1 523
3 8 17 14 31 14 l25 0 0 -479z m1028 -227 c2 -607 0 -703 -13 -719 -13 -17
-16 -18 -25 -5 -11 17 -14 1412 -3 1424 4 4 14 5 23 4 13 -3 15 -81 18 -704z
m90 -9 c1 -390 0 -720 -3 -733 -5 -19 -11 -23 -38 -20 -18 2 -32 8 -31 16 1 6
2 336 3 733 l1 720 33 -3 32 -3 3 -710z m-379 -487 c-5 -20 -24 -50 -42 -68
-65 -64 -188 -138 -244 -146 -38 -5 -26 10 28 35 94 45 158 99 206 174 35 54
47 67 54 55 5 -8 4 -30 -2 -50z m21 -86 c0 -17 -9 -37 -22 -49 -32 -29 -187
-110 -225 -118 -18 -3 -35 -11 -38 -16 -6 -9 -85 -13 -85 -5 0 19 16 36 35 36
54 0 198 72 262 132 28 26 57 48 62 48 6 0 11 -13 11 -28z"/>
<path d="M19895 9870 c3 -5 8 -10 11 -10 2 0 4 5 4 10 0 6 -5 10 -11 10 -5 0
-7 -4 -4 -10z"/>
<path d="M21850 9678 c0 -95 5 -180 10 -188 6 -10 10 46 10 167 0 111 -4 184
-10 188 -7 4 -10 -54 -10 -167z"/>
<path d="M7575 9560 c-3 -5 -1 -10 4 -10 6 0 11 5 11 10 0 6 -2 10 -4 10 -3 0
-8 -4 -11 -10z"/>
<path d="M21862 9135 c0 -16 2 -22 5 -12 2 9 2 23 0 30 -3 6 -5 -1 -5 -18z"/>
</g>
</svg>
