<svg width="31" height="25" viewBox="0 0 31 25" fill="none" xmlns="http://www.w3.org/2000/svg">
<path d="M31 2.95965C29.8595 3.46211 28.6337 3.8005 27.3472 3.95304C28.6608 3.17243 29.6696 1.9355 30.1436 0.461444C28.9152 1.18437 27.5538 1.70991 26.1046 1.99318C24.946 0.766509 23.2913 0 21.4623 0C17.3561 0 14.3388 3.80178 15.2662 7.74841C9.982 7.48564 5.29583 4.97334 2.15837 1.15489C0.492125 3.99149 1.29425 7.70227 4.12558 9.58137C3.0845 9.54804 2.10283 9.26477 1.24646 8.79179C1.17671 11.7155 3.28858 14.4509 6.34725 15.0597C5.45212 15.3007 4.47175 15.3571 3.47458 15.1674C4.28317 17.6746 6.63142 19.4986 9.41625 19.5498C6.7425 21.6302 3.37383 22.5595 0 22.1647C2.81454 23.9553 6.15867 25 9.7495 25C21.5579 25 28.2294 15.1033 27.8264 6.22693C29.069 5.33608 30.1475 4.22477 31 2.95965V2.95965Z" fill="white"/>
</svg>
