<svg width="30" height="25" viewBox="0 0 30 25" fill="none" xmlns="http://www.w3.org/2000/svg">
<path d="M7.65971 0L22.7207 0.00222027C24.6893 0.0261016 25.7163 0.245849 26.7816 0.815565C27.8143 1.36783 28.6322 2.18574 29.1844 3.21839C29.7898 4.35024 30 5.43897 30 7.65971V17.3403C30 19.561 29.7898 20.6498 29.1844 21.7816C28.6322 22.8143 27.8143 23.6322 26.7816 24.1844C25.6498 24.7898 24.561 25 22.3403 25H7.65971C5.43897 25 4.35024 24.7898 3.21839 24.1844C2.18574 23.6322 1.36783 22.8143 0.815565 21.7816C0.210242 20.6498 0 19.561 0 17.3403L0.00221997 7.27933C0.0261013 5.31073 0.245849 4.28366 0.815565 3.21839C1.36783 2.18574 2.18574 1.36783 3.21839 0.815565C4.35024 0.210242 5.43897 0 7.65971 0ZM27.109 4.66002L18.5355 13.2322C16.648 15.1198 13.6268 15.1827 11.6637 13.421L11.4645 13.2322L2.89103 4.66002C2.60426 5.30349 2.5 6.0395 2.5 7.65971V17.3403C2.5 19.1836 2.63495 19.8825 3.0201 20.6026C3.33937 21.1996 3.80041 21.6606 4.39738 21.9799C5.03282 22.3197 5.65165 22.4648 7.05475 22.4942L7.65971 22.5H22.3403C24.1836 22.5 24.8824 22.3651 25.6026 21.9799C26.1996 21.6606 26.6606 21.1996 26.9799 20.6026C27.3197 19.9672 27.4648 19.3483 27.4942 17.9453L27.5 17.3403V7.65971C27.5 6.0395 27.3957 5.30349 27.109 4.66002ZM22.3403 2.5H7.65971C6.0395 2.5 5.30349 2.60426 4.66002 2.89104L13.2322 11.4645C14.1572 12.3894 15.6265 12.4381 16.6087 11.6105L16.7678 11.4645L25.34 2.89104C24.6965 2.60426 23.9605 2.5 22.3403 2.5Z" fill="white"/>
</svg>
